<svg width="13" height="7" viewBox="0 0 13 7" fill="none" xmlns="http://www.w3.org/2000/svg">
<path d="M12.072 1.07143C12.072 0.982143 12.0273 0.881696 11.9604 0.814732L11.4023 0.256696C11.3354 0.189732 11.2349 0.145089 11.1456 0.145089C11.0564 0.145089 10.9559 0.189732 10.889 0.256696L6.50279 4.64286L2.11663 0.256696C2.04967 0.189732 1.94922 0.145089 1.85993 0.145089C1.75949 0.145089 1.6702 0.189732 1.60324 0.256696L1.0452 0.814732C0.978237 0.881696 0.933594 0.982143 0.933594 1.07143C0.933594 1.16071 0.978237 1.26116 1.0452 1.32812L6.24609 6.52902C6.31306 6.59598 6.4135 6.64062 6.50279 6.64062C6.59208 6.64062 6.69252 6.59598 6.75949 6.52902L11.9604 1.32812C12.0273 1.26116 12.072 1.16071 12.072 1.07143Z" fill="#151439" fill-opacity="0.4"/>
</svg>
